<?xml version="1.0" encoding="UTF-8" standalone="no"?>
<svg
   xmlns:dc="http://purl.org/dc/elements/1.1/"
   xmlns:cc="http://creativecommons.org/ns#"
   xmlns:rdf="http://www.w3.org/1999/02/22-rdf-syntax-ns#"
   xmlns:svg="http://www.w3.org/2000/svg"
   xmlns="http://www.w3.org/2000/svg"
   xmlns:xlink="http://www.w3.org/1999/xlink"
   id="svg8"
   version="1.1"
   viewBox="0 0 46.185516 9.6128292"
   height="9.6128292mm"
   width="46.185516mm">
  <defs
     id="defs2">
    <linearGradient
       id="linearGradient4615">
      <stop
         style="stop-color:#58f3ff;stop-opacity:1"
         offset="0"
         id="stop4609" />
      <stop
         id="stop4611"
         offset="0.63605243"
         style="stop-color:#151515;stop-opacity:1" />
      <stop
         style="stop-color:#5586ff;stop-opacity:1"
         offset="1"
         id="stop4613" />
    </linearGradient>
    <linearGradient
       id="linearGradient4607">
      <stop
         style="stop-color:#fc7cff;stop-opacity:1"
         offset="0"
         id="stop4601" />
      <stop
         id="stop4603"
         offset="0.94643074"
         style="stop-color:#000000;stop-opacity:1" />
      <stop
         style="stop-color:#69fffc;stop-opacity:0.00392157"
         offset="1"
         id="stop4605" />
    </linearGradient>
    <radialGradient
       gradientUnits="userSpaceOnUse"
       gradientTransform="matrix(1.171206,9.6035741e-5,0,0.1903043,-13.285055,99.493534)"
       r="22.187277"
       fy="140.55455"
       fx="79.115074"
       cy="140.55455"
       cx="79.115074"
       id="radialGradient4546-6"
       xlink:href="#linearGradient4607" />
    <linearGradient
       gradientUnits="userSpaceOnUse"
       y2="126.2965"
       x2="79.233261"
       y1="119.74399"
       x1="79.233261"
       id="linearGradient4599"
       xlink:href="#linearGradient4615" />
    <linearGradient
       y2="126.2965"
       x2="79.233261"
       y1="119.74399"
       x1="79.233261"
       gradientUnits="userSpaceOnUse"
       id="linearGradient5242"
       xlink:href="#linearGradient4615" />
    <radialGradient
       r="22.187277"
       fy="140.55455"
       fx="79.115074"
       cy="140.55455"
       cx="79.115074"
       gradientTransform="matrix(1.171206,9.6035741e-5,0,0.1903043,-13.285055,99.493534)"
       gradientUnits="userSpaceOnUse"
       id="radialGradient5244"
       xlink:href="#linearGradient4607" />
    <linearGradient
       y2="126.2965"
       x2="79.233261"
       y1="119.74399"
       x1="79.233261"
       gradientUnits="userSpaceOnUse"
       id="linearGradient5409"
       xlink:href="#linearGradient4615" />
    <linearGradient
       y2="126.2965"
       x2="79.233261"
       y1="119.74399"
       x1="79.233261"
       gradientUnits="userSpaceOnUse"
       id="linearGradient5411"
       xlink:href="#linearGradient4615" />
    <linearGradient
       y2="126.2965"
       x2="79.233261"
       y1="119.74399"
       x1="79.233261"
       gradientUnits="userSpaceOnUse"
       id="linearGradient5413"
       xlink:href="#linearGradient4615" />
    <linearGradient
       y2="126.2965"
       x2="79.233261"
       y1="119.74399"
       x1="79.233261"
       gradientUnits="userSpaceOnUse"
       id="linearGradient5415"
       xlink:href="#linearGradient4615" />
    <linearGradient
       y2="126.2965"
       x2="79.233261"
       y1="119.74399"
       x1="79.233261"
       gradientUnits="userSpaceOnUse"
       id="linearGradient5417"
       xlink:href="#linearGradient4615" />
    <linearGradient
       y2="126.2965"
       x2="79.233261"
       y1="119.74399"
       x1="79.233261"
       gradientUnits="userSpaceOnUse"
       id="linearGradient5419"
       xlink:href="#linearGradient4615" />
    <linearGradient
       y2="126.2965"
       x2="79.233261"
       y1="119.74399"
       x1="79.233261"
       gradientUnits="userSpaceOnUse"
       id="linearGradient5421"
       xlink:href="#linearGradient4615" />
    <linearGradient
       y2="126.2965"
       x2="79.233261"
       y1="119.74399"
       x1="79.233261"
       gradientUnits="userSpaceOnUse"
       id="linearGradient5423"
       xlink:href="#linearGradient4615" />
    <radialGradient
       r="22.187277"
       fy="140.55455"
       fx="79.115074"
       cy="140.55455"
       cx="79.115074"
       gradientTransform="matrix(1.171206,9.6035741e-5,0,0.1903043,-13.285055,99.493534)"
       gradientUnits="userSpaceOnUse"
       id="radialGradient5425"
       xlink:href="#linearGradient4607" />
    <radialGradient
       r="22.187277"
       fy="140.55455"
       fx="79.115074"
       cy="140.55455"
       cx="79.115074"
       gradientTransform="matrix(1.171206,9.6035741e-5,0,0.1903043,-13.285055,99.493534)"
       gradientUnits="userSpaceOnUse"
       id="radialGradient5427"
       xlink:href="#linearGradient4607" />
    <radialGradient
       r="22.187277"
       fy="140.55455"
       fx="79.115074"
       cy="140.55455"
       cx="79.115074"
       gradientTransform="matrix(1.171206,9.6035741e-5,0,0.1903043,-13.285055,99.493534)"
       gradientUnits="userSpaceOnUse"
       id="radialGradient5429"
       xlink:href="#linearGradient4607" />
    <radialGradient
       r="22.187277"
       fy="140.55455"
       fx="79.115074"
       cy="140.55455"
       cx="79.115074"
       gradientTransform="matrix(1.171206,9.6035741e-5,0,0.1903043,-13.285055,99.493534)"
       gradientUnits="userSpaceOnUse"
       id="radialGradient5431"
       xlink:href="#linearGradient4607" />
    <radialGradient
       r="22.187277"
       fy="140.55455"
       fx="79.115074"
       cy="140.55455"
       cx="79.115074"
       gradientTransform="matrix(1.171206,9.6035741e-5,0,0.1903043,-13.285055,99.493534)"
       gradientUnits="userSpaceOnUse"
       id="radialGradient5433"
       xlink:href="#linearGradient4607" />
    <radialGradient
       r="22.187277"
       fy="140.55455"
       fx="79.115074"
       cy="140.55455"
       cx="79.115074"
       gradientTransform="matrix(1.171206,9.6035741e-5,0,0.1903043,-13.285055,99.493534)"
       gradientUnits="userSpaceOnUse"
       id="radialGradient5435"
       xlink:href="#linearGradient4607" />
    <radialGradient
       r="22.187277"
       fy="140.55455"
       fx="79.115074"
       cy="140.55455"
       cx="79.115074"
       gradientTransform="matrix(1.171206,9.6035741e-5,0,0.1903043,-13.285055,99.493534)"
       gradientUnits="userSpaceOnUse"
       id="radialGradient5437"
       xlink:href="#linearGradient4607" />
    <radialGradient
       r="22.187277"
       fy="140.55455"
       fx="79.115074"
       cy="140.55455"
       cx="79.115074"
       gradientTransform="matrix(1.171206,9.6035741e-5,0,0.1903043,-13.285055,99.493534)"
       gradientUnits="userSpaceOnUse"
       id="radialGradient5439"
       xlink:href="#linearGradient4607" />
    <clipPath
       id="clipPath6133"
       clipPathUnits="userSpaceOnUse">
      <path
         id="path6135"
         d="M 50.537106,132.55606 H 106.2174 l 1.39897,-7.93397 H 51.936079 Z"
         style="opacity:1;fill:#b1fffd;fill-opacity:1;stroke:none;stroke-width:0.5;stroke-linecap:round;stroke-miterlimit:4;stroke-dasharray:none;stroke-dashoffset:0;stroke-opacity:0.13488375" />
    </clipPath>
  </defs>
  <metadata
     id="metadata5">
    <rdf:RDF>
      <cc:Work
         rdf:about="">
        <dc:format>image/svg+xml</dc:format>
        <dc:type
           rdf:resource="http://purl.org/dc/dcmitype/StillImage" />
        <dc:title></dc:title>
      </cc:Work>
    </rdf:RDF>
  </metadata>
  <g
     transform="translate(-55.898663,-119.68118)"
     id="layer1">
    <g
       transform="matrix(1,0,-0.18764325,1,23.152137,0)"
       id="g5230">
      <text
         xml:space="preserve"
         style="font-style:normal;font-weight:normal;font-size:10.58333302px;line-height:6.61458302px;font-family:sans-serif;letter-spacing:0px;word-spacing:0px;fill:url(#linearGradient4599);fill-opacity:1;stroke:none;stroke-width:0.26458332px;stroke-linecap:butt;stroke-linejoin:miter;stroke-opacity:1"
         x="56.696426"
         y="126.91071"
         id="text4487"><tspan
           id="tspan4485"
           x="56.696426"
           y="126.91071"
           style="font-style:normal;font-variant:normal;font-weight:normal;font-stretch:normal;font-size:10.58333302px;font-family:'Bauhaus 93';-inkscape-font-specification:'Bauhaus 93, Normal';font-variant-ligatures:normal;font-variant-caps:normal;font-variant-numeric:normal;font-feature-settings:normal;text-align:start;writing-mode:lr-tb;text-anchor:start;fill:url(#linearGradient4599);fill-opacity:1;stroke-width:0.26458332px">STARFARE</tspan></text>
      <text
         xml:space="preserve"
         style="font-style:normal;font-weight:normal;font-size:10.58333302px;line-height:6.61458349px;font-family:sans-serif;letter-spacing:0px;word-spacing:0px;fill:url(#radialGradient4546-6);fill-opacity:1;stroke:none;stroke-width:0.26458332px;stroke-linecap:butt;stroke-linejoin:miter;stroke-opacity:1"
         x="56.696426"
         y="126.91071"
         id="text4487-7"><tspan
           id="tspan4485-7"
           x="56.696426"
           y="126.91071"
           style="font-style:normal;font-variant:normal;font-weight:normal;font-stretch:normal;font-size:10.58333302px;font-family:'Bauhaus 93';-inkscape-font-specification:'Bauhaus 93, Normal';font-variant-ligatures:normal;font-variant-caps:normal;font-variant-numeric:normal;font-feature-settings:normal;text-align:start;writing-mode:lr-tb;text-anchor:start;fill:url(#radialGradient4546-6);fill-opacity:1;stroke-width:0.26458332px">STARFARE</tspan></text>
    </g>
    <flowRoot
       transform="scale(0.26458333)"
       style="font-style:normal;font-weight:normal;font-size:40px;line-height:25px;font-family:sans-serif;letter-spacing:0px;word-spacing:0px;fill:#000000;fill-opacity:1;stroke:none;stroke-width:1px;stroke-linecap:butt;stroke-linejoin:miter;stroke-opacity:1"
       id="flowRoot4489"
       xml:space="preserve"><flowRegion
         id="flowRegion4491"><rect
           y="405.31137"
           x="193.9493"
           height="165.66502"
           width="277.79196"
           id="rect4493" /></flowRegion><flowPara
         id="flowPara4495"></flowPara></flowRoot>    <g
       clip-path="url(#clipPath6133)"
       style="opacity:0.4;stroke:none;stroke-opacity:0.00392157"
       transform="matrix(1,0,0.17632698,-1,-23.04967,253.9161)"
       id="g5240">
      <g
         id="text5234"
         style="font-style:normal;font-weight:normal;font-size:10.58333302px;line-height:6.61458302px;font-family:sans-serif;letter-spacing:0px;word-spacing:0px;fill:url(#linearGradient5242);fill-opacity:1;stroke:none;stroke-width:0.26458332px;stroke-linecap:butt;stroke-linejoin:miter;stroke-opacity:0.00392157"
         aria-label="STARFARE">
        <path
           id="path5310"
           style="font-style:normal;font-variant:normal;font-weight:normal;font-stretch:normal;font-size:10.58333302px;font-family:'Bauhaus 93';-inkscape-font-specification:'Bauhaus 93, Normal';font-variant-ligatures:normal;font-variant-caps:normal;font-variant-numeric:normal;font-feature-settings:normal;text-align:start;writing-mode:lr-tb;text-anchor:start;fill:url(#linearGradient5409);fill-opacity:1;stroke:none;stroke-width:0.26458332px;stroke-opacity:0.00392157"
           d="m 60.716853,119.82587 v 2.01022 q -0.227377,-0.0775 -0.3514,-0.0775 -0.237712,0 -0.408244,0.1757 -0.170532,0.1757 -0.170532,0.42375 0,0.21187 0.186035,0.53743 l 0.160197,0.27906 q 0.434082,0.75447 0.434082,1.45727 0,1.02836 -0.733805,1.7415 -0.728638,0.71313 -1.782837,0.71313 -0.506429,0 -1.002523,-0.23254 v -2.04122 q 0.299723,0.1912 0.532267,0.1912 0.273885,0 0.454753,-0.15503 0.186035,-0.16019 0.186035,-0.3979 0,-0.15503 -0.294556,-0.67697 -0.470255,-0.82682 -0.470255,-1.65364 0,-0.99736 0.707967,-1.71566 0.713135,-0.72347 1.700155,-0.72347 0.434082,0 0.852661,0.14469 z" />
        <path
           id="path5312"
           style="font-style:normal;font-variant:normal;font-weight:normal;font-stretch:normal;font-size:10.58333302px;font-family:'Bauhaus 93';-inkscape-font-specification:'Bauhaus 93, Normal';font-variant-ligatures:normal;font-variant-caps:normal;font-variant-numeric:normal;font-feature-settings:normal;text-align:start;writing-mode:lr-tb;text-anchor:start;fill:url(#linearGradient5411);fill-opacity:1;stroke:none;stroke-width:0.26458332px;stroke-opacity:0.00392157"
           d="m 64.856135,121.8826 v 5.02811 h -2.098063 v -5.02811 h -1.607137 v -2.02572 h 5.307169 v 2.02572 z" />
        <path
           id="path5314"
           style="font-style:normal;font-variant:normal;font-weight:normal;font-stretch:normal;font-size:10.58333302px;font-family:'Bauhaus 93';-inkscape-font-specification:'Bauhaus 93, Normal';font-variant-ligatures:normal;font-variant-caps:normal;font-variant-numeric:normal;font-feature-settings:normal;text-align:start;writing-mode:lr-tb;text-anchor:start;fill:url(#linearGradient5413);fill-opacity:1;stroke:none;stroke-width:0.26458332px;stroke-opacity:0.00392157"
           d="m 69.801569,123.37088 v 1.86035 h -0.604614 v 1.67948 h -2.098063 v -4.48551 q 0,-1.30225 0.707967,-2.02055 0.713135,-0.72347 1.999878,-0.72347 1.240234,0 1.834513,0.65629 0.594279,0.65112 0.594279,2.01538 v 4.55786 h -2.098063 v -4.41833 q 0,-0.41341 -0.09819,-0.57361 -0.09819,-0.1602 -0.3514,-0.1602 -0.490926,0 -0.490926,0.73381 v 0.8785 z" />
        <path
           id="path5316"
           style="font-style:normal;font-variant:normal;font-weight:normal;font-stretch:normal;font-size:10.58333302px;font-family:'Bauhaus 93';-inkscape-font-specification:'Bauhaus 93, Normal';font-variant-ligatures:normal;font-variant-caps:normal;font-variant-numeric:normal;font-feature-settings:normal;text-align:start;writing-mode:lr-tb;text-anchor:start;fill:url(#linearGradient5415);fill-opacity:1;stroke:none;stroke-width:0.26458332px;stroke-opacity:0.00392157"
           d="m 75.604832,121.75341 v 5.1573 h -2.098063 v -7.05383 h 2.692342 q 1.229899,0 1.90686,0.60978 0.754476,0.68213 0.754476,1.73116 0,1.0697 -0.935344,1.80351 l 1.209229,2.90938 h -2.201416 l -1.018026,-2.27376 v -1.81384 h 0.165365 q 0.661458,0 0.661458,-0.56844 0,-0.50126 -0.764811,-0.50126 z" />
        <path
           id="path5318"
           style="font-style:normal;font-variant:normal;font-weight:normal;font-stretch:normal;font-size:10.58333302px;font-family:'Bauhaus 93';-inkscape-font-specification:'Bauhaus 93, Normal';font-variant-ligatures:normal;font-variant-caps:normal;font-variant-numeric:normal;font-feature-settings:normal;text-align:start;writing-mode:lr-tb;text-anchor:start;fill:url(#linearGradient5417);fill-opacity:1;stroke:none;stroke-width:0.26458332px;stroke-opacity:0.00392157"
           d="m 82.482965,123.17967 v 1.89136 h -0.697632 v 1.83968 H 79.68727 v -4.37699 q 0,-1.23507 0.759643,-2.04122 0.764812,-0.81132 1.922364,-0.81132 1.276407,0 2.134236,1.10071 l -1.720825,1.25574 q -0.144694,-0.40308 -0.511597,-0.40308 -0.485758,0 -0.485758,0.67179 v 0.87333 z" />
        <path
           id="path5320"
           style="font-style:normal;font-variant:normal;font-weight:normal;font-stretch:normal;font-size:10.58333302px;font-family:'Bauhaus 93';-inkscape-font-specification:'Bauhaus 93, Normal';font-variant-ligatures:normal;font-variant-caps:normal;font-variant-numeric:normal;font-feature-settings:normal;text-align:start;writing-mode:lr-tb;text-anchor:start;fill:url(#linearGradient5419);fill-opacity:1;stroke:none;stroke-width:0.26458332px;stroke-opacity:0.00392157"
           d="m 87.49558,123.37088 v 1.86035 h -0.604614 v 1.67948 h -2.098063 v -4.48551 q 0,-1.30225 0.707967,-2.02055 0.713134,-0.72347 1.999878,-0.72347 1.240234,0 1.834513,0.65629 0.594279,0.65112 0.594279,2.01538 v 4.55786 h -2.098063 v -4.41833 q 0,-0.41341 -0.09819,-0.57361 -0.09819,-0.1602 -0.3514,-0.1602 -0.490926,0 -0.490926,0.73381 v 0.8785 z" />
        <path
           id="path5322"
           style="font-style:normal;font-variant:normal;font-weight:normal;font-stretch:normal;font-size:10.58333302px;font-family:'Bauhaus 93';-inkscape-font-specification:'Bauhaus 93, Normal';font-variant-ligatures:normal;font-variant-caps:normal;font-variant-numeric:normal;font-feature-settings:normal;text-align:start;writing-mode:lr-tb;text-anchor:start;fill:url(#linearGradient5421);fill-opacity:1;stroke:none;stroke-width:0.26458332px;stroke-opacity:0.00392157"
           d="m 93.298843,121.75341 v 5.1573 H 91.20078 v -7.05383 h 2.692342 q 1.229899,0 1.906861,0.60978 0.754475,0.68213 0.754475,1.73116 0,1.0697 -0.935343,1.80351 l 1.209229,2.90938 h -2.201416 l -1.018026,-2.27376 v -1.81384 h 0.165364 q 0.661459,0 0.661459,-0.56844 0,-0.50126 -0.764811,-0.50126 z" />
        <path
           id="path5324"
           style="font-style:normal;font-variant:normal;font-weight:normal;font-stretch:normal;font-size:10.58333302px;font-family:'Bauhaus 93';-inkscape-font-specification:'Bauhaus 93, Normal';font-variant-ligatures:normal;font-variant-caps:normal;font-variant-numeric:normal;font-feature-settings:normal;text-align:start;writing-mode:lr-tb;text-anchor:start;fill:url(#linearGradient5423);fill-opacity:1;stroke:none;stroke-width:0.26458332px;stroke-opacity:0.00392157"
           d="m 101.28802,122.6009 v 1.57096 h -1.369426 q -0.279052,0 -0.397908,0.0827 -0.113688,0.0827 -0.113688,0.27906 0,0.22221 0.118855,0.29455 0.118856,0.0672 0.485757,0.0672 h 1.41077 v 2.01538 H 99.7739 q -1.162719,0 -1.777669,-0.55293 -0.614949,-0.55811 -0.614949,-1.60714 v -2.76469 q 0,-1.01286 0.578776,-1.57096 0.583943,-0.55811 1.638142,-0.55811 h 1.82418 v 2.02572 h -1.33842 q -0.542604,0 -0.542604,0.3514 0,0.2067 0.129191,0.28938 0.129191,0.0775 0.459923,0.0775 z" />
      </g>
      <g
         id="text5238"
         style="font-style:normal;font-weight:normal;font-size:10.58333302px;line-height:6.61458349px;font-family:sans-serif;letter-spacing:0px;word-spacing:0px;fill:url(#radialGradient5244);fill-opacity:1;stroke:none;stroke-width:0.26458332px;stroke-linecap:butt;stroke-linejoin:miter;stroke-opacity:0.00392157"
         aria-label="STARFARE">
        <path
           id="path5327"
           style="font-style:normal;font-variant:normal;font-weight:normal;font-stretch:normal;font-size:10.58333302px;font-family:'Bauhaus 93';-inkscape-font-specification:'Bauhaus 93, Normal';font-variant-ligatures:normal;font-variant-caps:normal;font-variant-numeric:normal;font-feature-settings:normal;text-align:start;writing-mode:lr-tb;text-anchor:start;fill:url(#radialGradient5425);fill-opacity:1;stroke:none;stroke-width:0.26458332px;stroke-opacity:0.00392157"
           d="m 60.716853,119.82587 v 2.01022 q -0.227377,-0.0775 -0.3514,-0.0775 -0.237712,0 -0.408244,0.1757 -0.170532,0.1757 -0.170532,0.42375 0,0.21187 0.186035,0.53743 l 0.160197,0.27906 q 0.434082,0.75447 0.434082,1.45727 0,1.02836 -0.733805,1.7415 -0.728638,0.71313 -1.782837,0.71313 -0.506429,0 -1.002523,-0.23254 v -2.04122 q 0.299723,0.1912 0.532267,0.1912 0.273885,0 0.454753,-0.15503 0.186035,-0.16019 0.186035,-0.3979 0,-0.15503 -0.294556,-0.67697 -0.470255,-0.82682 -0.470255,-1.65364 0,-0.99736 0.707967,-1.71566 0.713135,-0.72347 1.700155,-0.72347 0.434082,0 0.852661,0.14469 z" />
        <path
           id="path5329"
           style="font-style:normal;font-variant:normal;font-weight:normal;font-stretch:normal;font-size:10.58333302px;font-family:'Bauhaus 93';-inkscape-font-specification:'Bauhaus 93, Normal';font-variant-ligatures:normal;font-variant-caps:normal;font-variant-numeric:normal;font-feature-settings:normal;text-align:start;writing-mode:lr-tb;text-anchor:start;fill:url(#radialGradient5427);fill-opacity:1;stroke:none;stroke-width:0.26458332px;stroke-opacity:0.00392157"
           d="m 64.856135,121.8826 v 5.02811 h -2.098063 v -5.02811 h -1.607137 v -2.02572 h 5.307169 v 2.02572 z" />
        <path
           id="path5331"
           style="font-style:normal;font-variant:normal;font-weight:normal;font-stretch:normal;font-size:10.58333302px;font-family:'Bauhaus 93';-inkscape-font-specification:'Bauhaus 93, Normal';font-variant-ligatures:normal;font-variant-caps:normal;font-variant-numeric:normal;font-feature-settings:normal;text-align:start;writing-mode:lr-tb;text-anchor:start;fill:url(#radialGradient5429);fill-opacity:1;stroke:none;stroke-width:0.26458332px;stroke-opacity:0.00392157"
           d="m 69.801569,123.37088 v 1.86035 h -0.604614 v 1.67948 h -2.098063 v -4.48551 q 0,-1.30225 0.707967,-2.02055 0.713135,-0.72347 1.999878,-0.72347 1.240234,0 1.834513,0.65629 0.594279,0.65112 0.594279,2.01538 v 4.55786 h -2.098063 v -4.41833 q 0,-0.41341 -0.09819,-0.57361 -0.09819,-0.1602 -0.3514,-0.1602 -0.490926,0 -0.490926,0.73381 v 0.8785 z" />
        <path
           id="path5333"
           style="font-style:normal;font-variant:normal;font-weight:normal;font-stretch:normal;font-size:10.58333302px;font-family:'Bauhaus 93';-inkscape-font-specification:'Bauhaus 93, Normal';font-variant-ligatures:normal;font-variant-caps:normal;font-variant-numeric:normal;font-feature-settings:normal;text-align:start;writing-mode:lr-tb;text-anchor:start;fill:url(#radialGradient5431);fill-opacity:1;stroke:none;stroke-width:0.26458332px;stroke-opacity:0.00392157"
           d="m 75.604832,121.75341 v 5.1573 h -2.098063 v -7.05383 h 2.692342 q 1.229899,0 1.90686,0.60978 0.754476,0.68213 0.754476,1.73116 0,1.0697 -0.935344,1.80351 l 1.209229,2.90938 h -2.201416 l -1.018026,-2.27376 v -1.81384 h 0.165365 q 0.661458,0 0.661458,-0.56844 0,-0.50126 -0.764811,-0.50126 z" />
        <path
           id="path5335"
           style="font-style:normal;font-variant:normal;font-weight:normal;font-stretch:normal;font-size:10.58333302px;font-family:'Bauhaus 93';-inkscape-font-specification:'Bauhaus 93, Normal';font-variant-ligatures:normal;font-variant-caps:normal;font-variant-numeric:normal;font-feature-settings:normal;text-align:start;writing-mode:lr-tb;text-anchor:start;fill:url(#radialGradient5433);fill-opacity:1;stroke:none;stroke-width:0.26458332px;stroke-opacity:0.00392157"
           d="m 82.482965,123.17967 v 1.89136 h -0.697632 v 1.83968 H 79.68727 v -4.37699 q 0,-1.23507 0.759643,-2.04122 0.764812,-0.81132 1.922364,-0.81132 1.276407,0 2.134236,1.10071 l -1.720825,1.25574 q -0.144694,-0.40308 -0.511597,-0.40308 -0.485758,0 -0.485758,0.67179 v 0.87333 z" />
        <path
           id="path5337"
           style="font-style:normal;font-variant:normal;font-weight:normal;font-stretch:normal;font-size:10.58333302px;font-family:'Bauhaus 93';-inkscape-font-specification:'Bauhaus 93, Normal';font-variant-ligatures:normal;font-variant-caps:normal;font-variant-numeric:normal;font-feature-settings:normal;text-align:start;writing-mode:lr-tb;text-anchor:start;fill:url(#radialGradient5435);fill-opacity:1;stroke:none;stroke-width:0.26458332px;stroke-opacity:0.00392157"
           d="m 87.49558,123.37088 v 1.86035 h -0.604614 v 1.67948 h -2.098063 v -4.48551 q 0,-1.30225 0.707967,-2.02055 0.713134,-0.72347 1.999878,-0.72347 1.240234,0 1.834513,0.65629 0.594279,0.65112 0.594279,2.01538 v 4.55786 h -2.098063 v -4.41833 q 0,-0.41341 -0.09819,-0.57361 -0.09819,-0.1602 -0.3514,-0.1602 -0.490926,0 -0.490926,0.73381 v 0.8785 z" />
        <path
           id="path5339"
           style="font-style:normal;font-variant:normal;font-weight:normal;font-stretch:normal;font-size:10.58333302px;font-family:'Bauhaus 93';-inkscape-font-specification:'Bauhaus 93, Normal';font-variant-ligatures:normal;font-variant-caps:normal;font-variant-numeric:normal;font-feature-settings:normal;text-align:start;writing-mode:lr-tb;text-anchor:start;fill:url(#radialGradient5437);fill-opacity:1;stroke:none;stroke-width:0.26458332px;stroke-opacity:0.00392157"
           d="m 93.298843,121.75341 v 5.1573 H 91.20078 v -7.05383 h 2.692342 q 1.229899,0 1.906861,0.60978 0.754475,0.68213 0.754475,1.73116 0,1.0697 -0.935343,1.80351 l 1.209229,2.90938 h -2.201416 l -1.018026,-2.27376 v -1.81384 h 0.165364 q 0.661459,0 0.661459,-0.56844 0,-0.50126 -0.764811,-0.50126 z" />
        <path
           id="path5341"
           style="font-style:normal;font-variant:normal;font-weight:normal;font-stretch:normal;font-size:10.58333302px;font-family:'Bauhaus 93';-inkscape-font-specification:'Bauhaus 93, Normal';font-variant-ligatures:normal;font-variant-caps:normal;font-variant-numeric:normal;font-feature-settings:normal;text-align:start;writing-mode:lr-tb;text-anchor:start;fill:url(#radialGradient5439);fill-opacity:1;stroke:none;stroke-width:0.26458332px;stroke-opacity:0.00392157"
           d="m 101.28802,122.6009 v 1.57096 h -1.369426 q -0.279052,0 -0.397908,0.0827 -0.113688,0.0827 -0.113688,0.27906 0,0.22221 0.118855,0.29455 0.118856,0.0672 0.485757,0.0672 h 1.41077 v 2.01538 H 99.7739 q -1.162719,0 -1.777669,-0.55293 -0.614949,-0.55811 -0.614949,-1.60714 v -2.76469 q 0,-1.01286 0.578776,-1.57096 0.583943,-0.55811 1.638142,-0.55811 h 1.82418 v 2.02572 h -1.33842 q -0.542604,0 -0.542604,0.3514 0,0.2067 0.129191,0.28938 0.129191,0.0775 0.459923,0.0775 z" />
      </g>
    </g>
  </g>
</svg>
